<?xml version="1.0" encoding="UTF-8" standalone="no"?>
<!-- Generator: Adobe Illustrator 15.0.0, SVG Export Plug-In . SVG Version: 6.00 Build 0)  -->

<svg
   xmlns:dc="http://purl.org/dc/elements/1.1/"
   xmlns:cc="http://creativecommons.org/ns#"
   xmlns:rdf="http://www.w3.org/1999/02/22-rdf-syntax-ns#"
   xmlns:svg="http://www.w3.org/2000/svg"
   xmlns="http://www.w3.org/2000/svg"
   xmlns:sodipodi="http://sodipodi.sourceforge.net/DTD/sodipodi-0.dtd"
   xmlns:inkscape="http://www.inkscape.org/namespaces/inkscape"
   version="1.1"
   id="Mode_Isolation"
   x="0px"
   y="0px"
   width="1050"
   height="1050"
   viewBox="0 0 1050 1050"
   enable-background="new 0 0 122 125"
   xml:space="preserve"
   inkscape:version="0.91 r13725"
   sodipodi:docname="icon-angel-grey.svg"><metadata
     id="metadata63"><rdf:RDF><cc:Work
         rdf:about=""><dc:format>image/svg+xml</dc:format><dc:type
           rdf:resource="http://purl.org/dc/dcmitype/StillImage" /><dc:title></dc:title></cc:Work></rdf:RDF></metadata><defs
     id="defs61" /><sodipodi:namedview
     pagecolor="#ffffff"
     bordercolor="#666666"
     borderopacity="1"
     objecttolerance="10"
     gridtolerance="10"
     guidetolerance="10"
     inkscape:pageopacity="0"
     inkscape:pageshadow="2"
     inkscape:window-width="1920"
     inkscape:window-height="1016"
     id="namedview59"
     showgrid="false"
     inkscape:zoom="0.5807326"
     inkscape:cx="442.96418"
     inkscape:cy="471.08391"
     inkscape:window-x="0"
     inkscape:window-y="27"
     inkscape:window-maximized="1"
     inkscape:current-layer="Mode_Isolation"
     showguides="false" /><path
     style="fill:#999999"
     d="M 496.62226,1026.0171 C 272.06196,1014.8352 79.623803,847.52445 35.942163,625.48971 6.5751926,476.21677 45.709113,324.16851 143.52415,207.49806 227.23046,107.656 349.02626,43.953235 479.47386,31.786445 713.54876,9.9544095 933.49786,157.88477 1002.2757,383.40532 c 24.3561,79.86307 27.6468,177.22023 8.6895,257.08922 -40.74674,171.67058 -164.75164,307.2214 -331.06964,361.89516 -59.1498,19.4443 -117.1411,26.9205 -183.2733,23.6274 z m -19.1819,-204.80908 c 3.188,-3.18793 3.403,-6.13382 1.7608,-24.1149 -3.3868,-37.08182 -1.8716,-86.82643 3.2355,-106.22523 5.5659,-21.14163 18.9413,-48.76318 28.804,-59.48343 14.5654,-15.83185 27.3172,-7.88808 44.6603,27.82136 16.2468,33.45238 21.2506,79.46838 14.6515,134.73847 -2.1311,17.84886 -2.0064,21.10558 0.9836,25.66889 9.2062,14.05033 35.9837,-0.78891 56.3258,-31.2139 15.9614,-23.87301 30.7333,-61.4888 35.9943,-91.65766 4.0732,-23.35765 4.0625,-62.54266 -0.025,-89.65883 -7.4341,-49.3226 -2.575,-83.78685 18.3605,-130.22574 33.8518,-75.08974 40.045,-95.9012 37.677,-126.60875 -3.1948,-41.43037 -24.2679,-78.56923 -56.1554,-98.96742 -30.3269,-19.39987 -67.8056,-23.56135 -114.5744,-12.72187 l -24.6508,5.71323 -24.4053,-5.7588 c -56.9412,-13.43619 -100.2261,-4.0298 -133.2026,28.9467 -24.3557,24.35562 -36.3831,54.92839 -36.3831,92.48275 0,27.11842 5.1773,44.74595 28.5715,97.27839 21.1475,47.48751 26.3669,63.29724 29.7564,90.13334 2.189,17.33141 1.8992,24.29224 -2.4591,59.07261 -5.3289,42.52504 -5.0482,67.78631 1.0768,96.90331 7.5938,36.09981 25.2004,74.6777 45.0836,98.78309 16.2464,19.69619 35.9397,28.0685 44.9138,19.09439 l 0,0 z"
     id="path2991"
     inkscape:connector-curvature="0" /><path
     style="fill:#999999;fill-opacity:1"
     d="m 455.99231,820.75595 c -21.88949,-9.93159 -49.97227,-54.17151 -63.17211,-99.51752 -9.9272,-34.10339 -11.42957,-62.97608 -5.87591,-112.92339 4.09731,-36.84944 4.28013,-52.11855 0.8569,-71.57053 -3.55501,-20.20079 -7.34098,-30.95817 -27.59151,-78.39802 -27.01036,-63.27577 -27.45452,-64.88089 -27.39779,-99.01287 0.0435,-26.14916 0.41408,-29.50972 4.65269,-42.18809 6.40602,-19.16143 15.55026,-34.03558 29.66206,-48.24872 14.29479,-14.39745 27.74458,-22.92818 46.50953,-29.49937 12.80129,-4.48281 15.6173,-4.81672 40.4496,-4.79636 22.96295,0.0188 29.45433,0.67402 46.48134,4.69145 10.88501,2.56827 21.74751,4.66957 24.13889,4.66957 2.39139,0 12.85757,-1.97638 23.25815,-4.39195 73.60109,-17.09411 129.29507,4.34348 156.80176,60.35575 11.22373,22.85503 13.61554,33.63589 13.562,61.12968 -0.043,22.15393 -0.33771,24.09898 -6.2678,41.3846 -3.42239,9.97596 -13.38375,34.77222 -22.13635,55.1028 -18.53161,43.04536 -23.04064,55.6607 -26.59885,74.41804 -3.39337,17.88837 -3.3163,50.72622 0.18607,79.28131 3.33209,27.16691 2.38239,74.40793 -1.87312,93.1747 -6.15947,27.16323 -19.63106,60.59385 -32.45505,80.53926 -13.88884,21.60158 -35.16202,39.30731 -47.22718,39.30731 -2.22479,0 -6.04862,-2.00355 -8.4974,-4.45232 -4.06724,-4.06724 -4.36096,-5.29595 -3.39582,-14.20619 5.8299,-53.82249 5.00236,-84.39812 -3.15456,-116.55366 -8.17637,-32.23222 -29.04167,-66.26882 -40.61357,-66.25105 -9.89173,0.0155 -19.55134,10.18657 -30.70116,32.3277 -9.98604,19.83011 -15.30933,39.04608 -17.51757,63.23481 -1.94303,21.28356 -1.33714,65.6032 1.21524,88.89321 0.92119,8.40573 0.5781,10.16597 -2.60114,13.34522 -4.55159,4.55158 -10.90178,4.59903 -20.69734,0.15463 z"
     id="path3333"
     inkscape:connector-curvature="0" /><rect
     style="fill:#999999;fill-opacity:1"
     id="rect3335"
     width="521.75476"
     height="724.94641"
     x="258.29443"
     y="178.68677" /><g
     transform="matrix(7.3681406,0,0,8.4505527,234.76173,184.42122)"
     id="g3"><path
       style="fill:#ffffff"
       inkscape:connector-curvature="0"
       d="M 54.951,5.207 C 52.445,3.149 50.695,3.638 48.179,8.125 46.522,11.092 43.87,11.449 42.25,11.359 l 0.013,-0.593 C 44.14,9.831 45.465,7.933 45.465,5.702 45.465,2.545 42.912,0 39.77,0 c -3.144,0 -5.707,2.545 -5.707,5.701 0,2.231 1.326,4.129 3.208,5.057 l 0.005,0.601 C 35.661,11.449 33.01,11.092 31.35,8.125 28.841,3.638 27.091,3.149 24.59,5.207 22.065,7.27 12.123,19.151 0.001,18.062 c 0,0 2.403,5.455 8.951,4.246 0,0 3.5,3.632 9.178,1.092 0,0 2.954,2.662 7.646,0.238 0,0 3.49,2.667 7.213,0.36 0,0 2.1,1.522 4.438,1.131 l 0.147,13.717 c -0.264,-0.054 -0.476,-0.111 -0.758,-0.166 0,-0.005 -4.054,-0.875 -8.35,-2.079 -4.132,-1.08 -8.671,-2.835 -9.339,-3.749 0.06,-0.057 0.148,-0.101 0.272,-0.158 0.365,-0.196 0.997,-0.394 1.737,-0.546 1.517,-0.308 3.575,-0.466 5.642,-0.552 4.106,-0.147 4.847,0.031 4.922,0.042 0.005,-0.127 2.374,0.282 3.026,-2.136 -0.026,-0.016 0.049,-0.117 0.005,-0.168 -0.137,-1.667 -1.414,-1.745 -2.459,-1.941 -1.696,-0.223 -0.811,-0.132 -3.102,-0.106 -3.759,0.282 -15.345,-0.658 -16.803,5.439 0,0.171 -0.01,0.282 -0.031,0.43 0.487,5.308 11.48,7.615 19.444,9.199 -2.706,1.852 -4.147,4.259 -4.725,7.371 -0.277,3.319 2.359,6.478 8.484,10.01 -4.65,3.287 -7.705,6.384 -7.457,10.117 0.435,3.045 3.123,7.115 8.404,9.684 0.016,0.005 0.021,-0.006 0.034,0 l 0,0 c 0,0 0.005,0 0.015,0 0,0 -3.697,-5.645 -3.945,-8.73 -0.244,-1.792 0.779,-4.464 5.276,-7.664 l 0.127,11.278 0.021,0 c 0.031,0.958 0.774,1.72 1.704,1.72 0.927,0 1.67,-0.767 1.7,-1.72 l 0.016,0 0.148,-10.982 c 4.142,3.07 5.079,5.628 4.841,7.368 -0.243,3.086 -3.93,8.73 -3.93,8.73 0,0 0,0 0.01,0 0,0 0.011,0.005 0.031,0 5.282,-2.568 7.975,-6.633 8.399,-9.678 0.248,-3.734 -2.802,-6.83 -7.446,-10.113 6.11,-3.531 8.751,-6.695 8.481,-10.015 -0.569,-3.112 -2.02,-5.52 -4.728,-7.368 7.969,-1.587 18.957,-3.894 19.444,-9.202 -0.021,-0.147 -0.031,-0.259 -0.031,-0.43 -1.455,-6.097 -13.049,-5.158 -16.809,-5.44 -2.289,-0.025 -1.398,-0.116 -3.097,0.106 -1.051,0.191 -2.33,0.27 -2.465,1.937 -0.041,0.052 0.031,0.153 0.011,0.174 0.652,2.418 3.023,2.004 3.029,2.136 0.067,-0.011 0.808,-0.189 4.924,-0.042 2.062,0.085 4.111,0.238 5.629,0.551 0.751,0.153 1.367,0.35 1.74,0.547 0.119,0.057 0.217,0.101 0.274,0.16 -0.668,0.911 -5.199,2.667 -9.337,3.754 -4.292,1.191 -8.357,2.061 -8.367,2.066 -0.106,0.021 -0.187,0.041 -0.293,0.06 l 0.176,-13.619 c 2.349,0.415 4.472,-1.124 4.472,-1.124 3.708,2.307 7.208,-0.36 7.208,-0.36 4.702,2.423 7.643,-0.238 7.643,-0.238 5.676,2.54 9.176,-1.092 9.176,-1.092 6.561,1.209 8.969,-4.246 8.969,-4.246 C 67.41,19.151 57.468,7.27 54.951,5.207 Z m -22.62,45.575 c 0.083,-1.196 -0.329,-4.055 5.328,-6.131 l 0.127,11.334 c -1.093,-0.693 -2.222,-1.402 -3.371,-2.133 -1.517,-0.942 -2.229,-2.21 -2.084,-3.07 z m 12.27,3.071 c -1,0.643 -1.968,1.242 -2.923,1.849 l 0.145,-10.869 c 5.165,2.062 4.777,4.784 4.865,5.955 0.139,0.854 -0.571,2.122 -2.087,3.065 z"
       id="path5" /></g><g
     transform="matrix(6.9567834,0,0,7.7794266,241.64999,203.36281)"
     id="g7" /><g
     transform="matrix(6.9567834,0,0,7.7794266,241.64999,203.36281)"
     id="g9" /><g
     transform="matrix(6.9567834,0,0,7.7794266,241.64999,203.36281)"
     id="g11" /><g
     transform="matrix(6.9567834,0,0,7.7794266,241.64999,203.36281)"
     id="g13" /><g
     transform="matrix(6.9567834,0,0,7.7794266,241.64999,203.36281)"
     id="g15" /><g
     transform="matrix(6.9567834,0,0,7.7794266,241.64999,203.36281)"
     id="g17" /><g
     transform="matrix(6.9567834,0,0,7.7794266,241.64999,203.36281)"
     id="g19" /><g
     transform="matrix(6.9567834,0,0,7.7794266,241.64999,203.36281)"
     id="g21" /><g
     transform="matrix(6.9567834,0,0,7.7794266,241.64999,203.36281)"
     id="g23" /><g
     transform="matrix(6.9567834,0,0,7.7794266,241.64999,203.36281)"
     id="g25" /><g
     transform="matrix(6.9567834,0,0,7.7794266,241.64999,203.36281)"
     id="g27" /><g
     transform="matrix(6.9567834,0,0,7.7794266,241.64999,203.36281)"
     id="g29" /><g
     transform="matrix(6.9567834,0,0,7.7794266,241.64999,203.36281)"
     id="g31" /><g
     transform="matrix(6.9567834,0,0,7.7794266,241.64999,203.36281)"
     id="g33" /><g
     transform="matrix(6.9567834,0,0,7.7794266,241.64999,203.36281)"
     id="g35" /></svg>